#!OML:ASF G:\JayActor3\Patient Classification 1\Patient 1\Session 5\male.ASF
:FULLY-SPECIFIED
:DEGREES
500
root -9.85205 17.7975 -7.09748 -566.564 -82.1807 585.117
lowerback 22.1253 -0.347267 5.06385
upperback 6.26527 0.110321 -0.90921
thorax -5.45104 -0.158767 -3.88852
lowerneck 6.83197 2.26599 3.47367
upperneck -21.5479 3.19638 -0.38777
head -7.68772 1.09021 -0.958018
rclavicle 2.06736e-014 -1.82882e-014
rhumerus -29.2959 -2.71194 -89.3795
rradius 31.7763
rwrist 1.68177
rhand -23.1531 -9.21782
rfingers 7.12502
rthumb 3.29528 -39.1721
lclavicle 2.06736e-014 -1.82882e-014
lhumerus -30.8901 1.25433 82.6888
lradius 28.9811
lwrist 19.0748
lhand -19.4778 10.0232
lfingers 7.12502
lthumb 6.84392 39.8926
rfemur -23.8301 9.31588 26.4391
rtibia 39.1442
rfoot 0.0221737 -6.56479
rtoes -2.79771
lfemur -42.5316 10.4749 -20.0627
ltibia 22.0308
lfoot 20.0589 -3.75413
ltoes -14.9598
501
root -9.71707 17.7974 -7.1134 -566.814 -82.1676 585.327
lowerback 22.2217 -0.34302 5.14166
upperback 6.27323 0.13658 -0.884845
thorax -5.48796 -0.148425 -3.91434
lowerneck 6.85455 2.26617 3.46212
upperneck -21.6132 3.19248 -0.400738
head -7.71339 1.08823 -0.960901
rclavicle 6.36111e-015 -2.3059e-014
rhumerus -29.0309 -2.6245 -89.429
rradius 31.7292
rwrist 1.73301
rhand -23.1799 -9.18826
rfingers 7.12502
rthumb 3.26936 -39.1429
lclavicle 6.36111e-015 -2.3059e-014
lhumerus -30.8178 1.25628 82.8195
lradius 29.0206
lwrist 19.1375
lhand -19.4661 10.0524
lfingers 7.12502
lthumb 6.85523 39.9214
rfemur -23.8956 9.06703 26.7412
rtibia 38.7212
rfoot -0.612403 -6.78206
rtoes -2.95758
lfemur -42.7388 10.1031 -19.7309
ltibia 21.4783
lfoot 21.2606 -2.98247
ltoes -14.4066
502
root -9.58012 17.8007 -7.13105 -567.046 -82.1762 585.536
lowerback 22.3156 -0.33391 5.194
upperback 6.28556 0.163705 -0.854753
thorax -5.51902 -0.137418 -3.91953
lowerneck 6.8727 2.26505 3.45068
upperneck -21.7006 3.18479 -0.41903
head -7.74556 1.08402 -0.965337
rclavicle -5.4467e-014 -5.60573e-014
rhumerus -28.7628 -2.54409 -89.4684
rradius 31.6997
rwrist 1.79187
rhand -23.2241 -9.1492
rfingers 7.12502
rthumb 3.2267 -39.1045
lclavicle -5.4467e-014 -5.60573e-014
lhumerus -30.7312 1.24356 82.9645
lradius 29.0809
lwrist 19.2376
lhand -19.4758 10.035
lfingers 7.12502
lthumb 6.8459 39.9044
rfemur -24.0728 8.85002 27.0056
rtibia 38.3858
rfoot -1.06301 -7.01083
rtoes -3.31327
lfemur -42.9308 9.74636 -19.4023
ltibia 20.8254
lfoot 22.6257 -2.07158
ltoes -13.4519
503
root -9.44152 17.8061 -7.15049 -567.267 -82.206 585.758
lowerback 22.402 -0.31772 5.2239
upperback 6.29943 0.19526 -0.818938
thorax -5.54447 -0.123953 -3.90673
lowerneck 6.88812 2.26032 3.43768
upperneck -21.8009 3.17029 -0.442232
head -7.7816 1.07665 -0.970617
rclavicle -1.11319e-014 -3.26007e-014
rhumerus -28.5041 -2.4737 -89.4953
rradius 31.7078
rwrist 1.82864
rhand -23.2771 -9.12236
rfingers 7.12502
rthumb 3.17549 -39.0785
lclavicle -1.11319e-014 -3.26007e-014
lhumerus -30.6315 1.19929 83.1267
lradius 29.1618
lwrist 19.38
lhand -19.496 9.99229
lfingers 7.12502
lthumb 6.82637 39.8622
rfemur -24.3566 8.64717 27.2332
rtibia 38.124
rfoot -1.34304 -7.22183
rtoes -3.72075
lfemur -43.1189 9.41649 -19.0805
ltibia 20.0846
lfoot 24.123 -1.04306
ltoes -12.0837
504
root -9.30248 17.8131 -7.1711 -567.529 -82.2636 586.043
lowerback 22.4738 -0.302184 5.24358
upperback 6.31331 0.223784 -0.778343
thorax -5.56296 -0.111541 -3.88195
lowerneck 6.89779 2.25456 3.42409
upperneck -21.9004 3.15287 -0.470362
head -7.81631 1.06845 -0.977084
rclavicle 3.89618e-014 3.49861e-014
rhumerus -28.266 -2.39941 -89.5128
rradius 31.7538
rwrist 1.85657
rhand -23.3261 -9.09089
rfingers 7.12502
rthumb 3.12817 -39.0477
lclavicle 3.89618e-014 3.49861e-014
lhumerus -30.5261 1.11905 83.3046
lradius 29.2641
lwrist 19.5636
lhand -19.5111 9.9538
lfingers 7.12502
lthumb 6.81182 39.8242
rfemur -24.7253 8.41174 27.4282
rtibia 37.9187
rfoot -1.4723 -7.36682
rtoes -4.15748
lfemur -43.3068 9.11308 -18.7697
ltibia 19.2827
lfoot 25.6896 0.0824197
ltoes -10.2778
505
root -9.16333 17.8203 -7.19257 -567.898 -82.3436 586.462
lowerback 22.5284 -0.290198 5.26412
upperback 6.32406 0.248327 -0.731024
thorax -5.57655 -0.100698 -3.84916
lowerneck 6.90138 2.24489 3.41
upperneck -21.9882 3.12999 -0.497294
head -7.84626 1.05799 -0.982425
rclavicle 2.74323e-014 4.29375e-014
rhumerus -28.0525 -2.31637 -89.5227
rradius 31.8369
rwrist 1.86239
rhand -23.3691 -9.05647
rfingers 7.12502
rthumb 3.08669 -39.0139
lclavicle 2.74323e-014 4.29375e-014
lhumerus -30.4173 1.00361 83.4941
lradius 29.3806
lwrist 19.7716
lhand -19.5069 9.91736
lfingers 7.12502
lthumb 6.81585 39.7877
rfemur -25.1642 8.1422 27.6031
rtibia 37.7538
rfoot -1.48438 -7.43773
rtoes -4.4777
lfemur -43.5124 8.83825 -18.4657
ltibia 18.4563
lfoot 27.2415 1.22153
ltoes -8.22941
506
root -9.02509 17.8264 -7.21422 -568.519 -82.4407 587.158
lowerback 22.558 -0.287906 5.30939
upperback 6.33063 0.266306 -0.672897
thorax -5.58232 -0.0926403 -3.81682
lowerneck 6.89626 2.23365 3.39356
upperneck -22.0517 3.10555 -0.519744
head -7.86672 1.04747 -0.985436
rclavicle -1.11319e-014 7.95139e-016
rhumerus -27.8667 -2.21428 -89.5258
rradius 31.9582
rwrist 1.81696
rhand -23.4044 -9.03751
rfingers 7.12502
rthumb 3.05253 -38.9954
lclavicle -1.11319e-014 7.95139e-016
lhumerus -30.3115 0.854424 83.6924
lradius 29.5115
lwrist 19.9854
lhand -19.4675 9.8862
lfingers 7.12502
lthumb 6.85389 39.7553
rfemur -25.6534 7.81285 27.7825
rtibia 37.6168
rfoot -1.41344 -7.40981
rtoes -4.78837
lfemur -43.7448 8.59033 -18.1591
ltibia 17.648
lfoot 28.7033 2.30646
ltoes -5.99485
507
root -8.88802 17.8308 -7.23564 -569.329 -82.558 588.064
lowerback 22.5637 -0.296928 5.36734
upperback 6.33193 0.27281 -0.608624
thorax -5.58276 -0.0897317 -3.78182
lowerneck 6.89076 2.21998 3.38645
upperneck -22.0893 3.08028 -0.539768
head -7.87842 1.03656 -0.98893
rclavicle 6.36111e-015 1.27222e-014
rhumerus -27.7076 -2.09481 -89.5225
rradius 32.0975
rwrist 1.7635
rhand -23.4333 -9.00111
rfingers 7.12502
rthumb 3.02468 -38.9594
lclavicle 6.36111e-015 1.27222e-014
lhumerus -30.2161 0.685339 83.8901
lradius 29.6558
lwrist 20.1865
lhand -19.384 9.86405
lfingers 7.12502
lthumb 6.93445 39.7305
rfemur -26.1727 7.43274 27.9599
rtibia 37.4972
rfoot -1.30587 -7.29759
rtoes -5.12503
lfemur -44.0173 8.37944 -17.8827
ltibia 16.9011
lfoot 30.0181 3.21464
ltoes -3.84261
508
root -8.75285 17.8332 -7.25644 -570.328 -82.701 589.17
lowerback 22.5476 -0.31997 5.43519
upperback 6.33034 0.263301 -0.541159
thorax -5.57671 -0.094141 -3.74456
lowerneck 6.8773 2.20364 3.38897
upperneck -22.0943 3.05447 -0.552738
head -7.87786 1.02509 -0.99128
rclavicle 6.75868e-015 -1.59028e-015
rhumerus -27.5676 -1.96253 -89.5121
rradius 32.2419
rwrist 1.6949
rhand -23.4571 -8.95404
rfingers 7.12502
rthumb 3.00166 -38.9127
lclavicle 6.75868e-015 -1.59028e-015
lhumerus -30.1341 0.4988 84.0826
lradius 29.8086
lwrist 20.3624
lhand -19.2674 9.83895
lfingers 7.12502
lthumb 7.047 39.7016
rfemur -26.7019 7.00723 28.1305
rtibia 37.3886
rfoot -1.20475 -7.11807
rtoes -5.47311
lfemur -44.3242 8.20856 -17.659
ltibia 16.262
lfoot 31.143 3.92296
ltoes -1.82781
509
root -8.62 17.8342 -7.27626 -571.468 -82.877 590.415
lowerback 22.5165 -0.357166 5.50538
upperback 6.32989 0.235385 -0.475348
thorax -5.56362 -0.10705 -3.70544
lowerneck 6.85723 2.18263 3.40133
upperneck -22.0692 3.0255 -0.55806
head -7.8662 1.01161 -0.99215
rclavicle 1.98785e-014 3.4191e-014
rhumerus -27.4414 -1.8315 -89.491
rradius 32.3831
rwrist 1.61617
rhand -23.4687 -8.91388
rfingers 7.12502
rthumb 2.99049 -38.8727
lclavicle 1.98785e-014 3.4191e-014
lhumerus -30.0667 0.30253 84.2662
lradius 29.9695
lwrist 20.5013
lhand -19.1182 9.82112
lfingers 7.12502
lthumb 7.19106 39.6789
rfemur -27.2215 6.5329 28.2843
rtibia 37.291
rfoot -1.13992 -6.88905
rtoes -5.80087
lfemur -44.6526 8.09558 -17.5323
ltibia 15.7563
lfoot 32.0618 4.35098
ltoes -0.107959
510
root -8.48922 17.8335 -7.29508 -572.805 -83.0852 591.854
lowerback 22.4779 -0.410768 5.57912
upperback 6.32926 0.186832 -0.411331
thorax -5.54895 -0.129735 -3.66482
lowerneck 6.84103 2.15748 3.42213
upperneck -22.0303 2.99425 -0.555405
head -7.85073 0.99611 -0.991563
rclavicle 1.47101e-014 1.86858e-014
rhumerus -27.324 -1.7151 -89.4586
rradius 32.5009
rwrist 1.56955
rhand -23.4778 -8.8579
rfingers 7.12502
rthumb 2.98164 -38.8168
lclavicle 1.47101e-014 1.86858e-014
lhumerus -30.0145 0.104691 84.4365
lradius 30.1349
lwrist 20.6073
lhand -18.951 9.80085
lfingers 7.12502
lthumb 7.35247 39.6531
rfemur -27.7344 6.01753 28.4274
rtibia 37.2114
rfoot -1.11708 -6.63415
rtoes -6.05767
lfemur -44.987 8.02828 -17.4974
ltibia 15.4055
lfoot 32.7076 4.55782
ltoes 1.36429
511
root -8.36003 17.8316 -7.31278 -574.195 -83.3371 593.328
lowerback 22.4508 -0.476357 5.63418
upperback 6.33293 0.1182 -0.357974
thorax -5.53773 -0.162121 -3.6199
lowerneck 6.82361 2.12628 3.44758
upperneck -21.9833 2.95776 -0.540648
head -7.8327 0.976786 -0.987244
rclavicle 5.1684e-015 2.10712e-014
rhumerus -27.2101 -1.63628 -89.4121
rradius 32.5981
rwrist 1.54432
rhand -23.466 -8.82026
rfingers 7.12502
rthumb 2.99308 -38.779
lclavicle 5.1684e-015 2.10712e-014
lhumerus -29.9674 -0.0932545 84.59
lradius 30.2968
lwrist 20.6813
lhand -18.7777 9.78392
lfingers 7.12502
lthumb 7.51971 39.6303
rfemur -28.2416 5.47364 28.5321
rtibia 37.1665
rfoot -1.13531 -6.37746
rtoes -6.22873
lfemur -45.3014 8.0036 -17.5879
ltibia 15.2123
lfoot 33.0368 4.46985
ltoes 2.41169
512
root -8.23221 17.8284 -7.3294 -575.642 -83.626 594.838
lowerback 22.447 -0.551172 5.67087
upperback 6.34289 0.0334489 -0.314992
thorax -5.53335 -0.202524 -3.57164
lowerneck 6.80399 2.09128 3.47195
upperneck -21.9381 2.91737 -0.516815
head -7.81518 0.954689 -0.979417
rclavicle 1.51076e-014 2.22639e-014
rhumerus -27.0988 -1.59934 -89.3524
rradius 32.6724
rwrist 1.54514
rhand -23.452 -8.79285
rfingers 7.12502
rthumb 3.00658 -38.7514
lclavicle 1.51076e-014 2.22639e-014
lhumerus -29.9179 -0.285209 84.7263
lradius 30.4504
lwrist 20.73
lhand -18.6067 9.78497
lfingers 7.12502
lthumb 7.68476 39.6253
rfemur -28.7508 4.9111 28.6025
rtibia 37.175
rfoot -1.1874 -6.13438
rtoes -6.34103
lfemur -45.566 7.9909 -17.7704
ltibia 15.172
lfoot 32.979 4.13471
ltoes 3.06372
513
root -8.10495 17.8238 -7.34532 -576.988 -83.9503 596.221
lowerback 22.4877 -0.625635 5.66812
upperback 6.3553 -0.0585436 -0.286584
thorax -5.55015 -0.247077 -3.51492
lowerneck 6.78456 2.05084 3.49078
upperneck -21.8988 2.87073 -0.481382
head -7.80012 0.928699 -0.966379
rclavicle 2.5842e-014 4.73108e-014
rhumerus -27 -1.61714 -89.2793
rradius 32.7277
rwrist 1.57973
rhand -23.4404 -8.77535
rfingers 7.12502
rthumb 3.01779 -38.7337
lclavicle 2.5842e-014 4.73108e-014
lhumerus -29.8629 -0.471013 84.8449
lradius 30.5866
lwrist 20.7586
lhand -18.4574 9.80604
lfingers 7.12502
lthumb 7.82884 39.6411
rfemur -29.2742 4.36495 28.6217
rtibia 37.2554
rfoot -1.27139 -5.935
rtoes -6.34869
lfemur -45.7598 7.97898 -18.0386
ltibia 15.2599
lfoot 32.5139 3.53738
ltoes 3.25885
